<svg xmlns="http://www.w3.org/2000/svg" viewBox="0 0 512 512"><path fill="#48c1e1" d="M60.802 73.52h51.775v34.549H60.802z"/><path d="M123.256 69.717c0 2.833-2.317 5.151-5.15 5.151H55.273c-2.833 0-5.15-2.318-5.15-5.151V32.59c0-2.833 2.317-5.151 5.15-5.151h62.832c2.833 0 5.15 2.318 5.15 5.151l.001 37.127z" fill="#046699"/><path d="M71.606 69.717V32.59c0-2.833 2.317-5.151 5.151-5.151H55.273c-2.833 0-5.15 2.318-5.15 5.151v37.127c0 2.833 2.317 5.151 5.15 5.151h21.484c-2.833 0-5.151-2.318-5.151-5.151z" opacity=".1"/><path d="M44.752 353.582a.998.998 0 00.49-1.416c-.429-.758-.646-1.503-.646-2.213 0-5.512 12.229-11.413 30.436-11.413 5.859 0 11.567.651 16.507 1.884a.996.996 0 00.949-.263.996.996 0 00.263-.949c-3.177-12.681-4.996-25.714-5.423-39.033-.006-.155-.016-.31-.021-.466a190.852 190.852 0 01-.087-5.72 4.181 4.181 0 014.172-4.182h9.035a.999.999 0 00.994-1.111 30.98 30.98 0 01-.217-3.485c0-14.09 9.01-26.396 22.421-30.621a.999.999 0 00.6-1.386 30.239 30.239 0 01-2.54-7.893c-2.336-13.481 4.717-26.903 17.15-32.64.47-.217.697-.757.523-1.245a30.111 30.111 0 01-1.316-4.989c-1.896-10.938 2.382-21.546 10.306-28.263v-42.945c0-15.81-12.905-28.745-28.68-28.745H53.709c-15.773 0-28.679 12.935-28.679 28.745V365.51c5.747-4.844 12.372-8.9 19.722-11.928z" fill="#a2dff9"/><path d="M123.626 254.592a.999.999 0 00.6-1.386 30.239 30.239 0 01-2.54-7.893c-2.336-13.481 4.717-26.903 17.15-32.64.47-.217.697-.757.523-1.245a30.111 30.111 0 01-1.316-4.989c-1.896-10.938 2.382-21.546 10.306-28.263V158.84H25.03v106.402h83.119a31.964 31.964 0 0115.477-10.65z" fill="#046699"/><path d="M56 341.114V135.232c0-15.81 12.905-28.745 28.679-28.745h-30.97c-15.773 0-28.679 12.935-28.679 28.745V365.51c5.747-4.844 12.372-8.899 19.722-11.928a.998.998 0 00.49-1.416c-.429-.758-.646-1.503-.646-2.213.001-3.239 4.23-6.608 11.404-8.839z" opacity=".1"/><path d="M242.54 188.248c.289 1.668.438 3.398.441 5.143a1 1 0 00.912.995c12.801 1.125 23.504 10.244 26.636 22.693a1 1 0 001.652.487c5.216-4.865 11.707-7.789 18.772-8.455a.998.998 0 00.905-.963c.455-14.023 6.157-27.21 16.057-37.131.207-.207.423-.4.633-.604-2.19-13.962-8.624-27.379-19.336-38.115a5.391 5.391 0 00-7.632 0l-43.896 43.997a30.225 30.225 0 014.856 11.953z" fill="#ef5050"/><path d="M270.528 217.079a1 1 0 001.652.487 31.977 31.977 0 018.48-5.695 7.473 7.473 0 00-1.872-3.137l-7.281-7.299a7.5 7.5 0 00-10.606-.013c-.022.021-.039.044-.06.066a30.13 30.13 0 019.687 15.591zm15.597-22.2h-10.296c-4.143 0-7.5-3.358-7.5-7.5s3.357-7.5 7.5-7.5h10.296a7.5 7.5 0 017.5 7.5c0 4.143-3.357 7.5-7.5 7.5zm-11.749-20.72a7.501 7.501 0 01-5.309-12.798l7.284-7.298a7.5 7.5 0 0110.617 10.597l-7.284 7.298a7.48 7.48 0 01-5.308 2.201z" fill="#c0272d"/><path d="M368.404 158.862a1.764 1.764 0 00-.998-1.001 55.792 55.792 0 00-60.201 12.449 56.052 56.052 0 00-16.371 38.811 32.26 32.26 0 013.155-.157c15.554 0 28.547 11.17 31.431 25.926a55.806 55.806 0 0030.565-15.69c15.799-15.837 20.674-39.52 12.419-60.338z" fill="#89c947"/><path d="M341.458 184.871a7.498 7.498 0 00-10.606.012l-25.944 26.003a32.127 32.127 0 0112.694 8.514l23.869-23.923a7.498 7.498 0 00-.013-10.606z" fill="#d5e962"/><path d="M379.175 244.754a27.39 27.39 0 01.396 4.629c.001.518.397.949.912.995 4.059.357 7.929 1.615 11.502 3.739a1 1 0 001.265-.202 50.08 50.08 0 012.304-2.489c6.036-6.05 13.335-10.368 21.294-12.722a33.174 33.174 0 001.152-8.669c0-18.283-14.788-33.106-33.031-33.106-15.558 0-28.597 10.785-32.099 25.3a27.12 27.12 0 0126.305 22.525zm-226.366 44.337a51.54 51.54 0 01-6.279-19.142 30.126 30.126 0 01-22.259-16.599c-13.884 3.918-24.065 16.694-24.065 31.862 0 1.314.1 2.604.249 3.878h52.354v.001z" fill="#ffc502"/><path d="M404.894 272.816a26.978 26.978 0 01-2.216 16.275h42.444a51.521 51.521 0 005.929-48.886 1.637 1.637 0 00-.917-.919 51.237 51.237 0 00-55.288 11.433 51.605 51.605 0 00-3.003 3.309c6.736 3.956 11.653 10.721 13.051 18.788z" fill="#89c947"/><path d="M402.678 289.091h9.275l14.793-14.826a7.498 7.498 0 00-.013-10.606 7.498 7.498 0 00-10.606.012l-10.983 11.008a26.942 26.942 0 01-2.466 14.412z" fill="#d5e962"/><path d="M271.677 217.658c-3.009-13.47-14.411-23.102-27.696-24.269a31.32 31.32 0 00-.455-5.313c-2.946-16.996-19.133-28.375-36.153-25.412-8.835 1.538-16.148 6.643-20.74 13.566-6.649-4.967-15.254-7.3-24.089-5.763-17.023 2.964-28.432 19.146-25.484 36.142.308 1.785.77 3.505 1.359 5.155-12.56 5.795-20.187 19.466-17.717 33.719 2.334 13.473 12.993 23.406 25.791 25.472-1.24-8.592-.245-17.46 3.076-25.837a.64.64 0 01.359-.36 50.085 50.085 0 0118.61-3.577c13.441 0 26.084 5.251 35.599 14.787a51.103 51.103 0 011.991 2.128 68.907 68.907 0 01-.808-10.515c0-2.43 1.971-4.407 4.394-4.407h52.364a32.545 32.545 0 01-.078-2.104c0-9.142 3.698-17.42 9.677-23.412z" fill="#368c0e"/><path d="M162.155 220.587l-.13-.001a7.5 7.5 0 01-7.372-7.626c.22-12.985 10.87-23.408 23.82-23.408l.381.003a23.874 23.874 0 0117.192 7.741 7.501 7.501 0 01-11.076 10.117 8.698 8.698 0 00-6.351-2.859c-4.875-.079-8.887 3.809-8.969 8.661a7.5 7.5 0 01-7.495 7.372zm41.404 12.905a7.5 7.5 0 01-7.031-10.11c4.184-11.279 16.771-17.067 28.063-12.902a21.899 21.899 0 0112.521 11.933 7.5 7.5 0 01-3.969 9.836 7.5 7.5 0 01-9.836-3.969 6.754 6.754 0 00-3.91-3.728c-3.547-1.308-7.493.508-8.805 4.046a7.503 7.503 0 01-7.033 4.894z" fill="#89c947"/><path d="M325.954 243.093h-.274c-.002.07-.002.141-.005.211h10.046a5.401 5.401 0 015.396 5.407c0 15.07-4.864 29.004-13.057 40.38h75.696c2.263-4.98 3.126-10.655 2.123-16.446-2.23-12.872-12.867-22.171-25.308-23.264a28.405 28.405 0 00-.411-4.798c-2.661-15.352-17.281-25.629-32.653-22.953-7.98 1.391-14.587 6-18.733 12.255a28.316 28.316 0 00-4.288-2.63 32.054 32.054 0 011.537 9.816c-.001.66-.023 1.328-.069 2.022z" fill="#368c0e"/><path d="M326.943 243.174c.046-.696.079-1.396.079-2.104 0-18.285-14.789-33.107-33.032-33.107-18.242 0-33.031 14.823-33.031 33.107 0 .708.033 1.408.078 2.104h65.906z" fill="#f7931e"/><path d="M204.845 255.263a51.241 51.241 0 00-55.288-11.433 1.637 1.637 0 00-.918.92 51.528 51.528 0 003.036 44.341h68.08c-6.896-9.186-11.571-20.134-13.212-32.042a51.814 51.814 0 00-1.698-1.786z" fill="#89c947"/><path d="M183.202 289.091h21.189l-20.829-20.876a7.5 7.5 0 00-10.606-.012 7.498 7.498 0 00-.013 10.606l10.259 10.282z" fill="#d5e962"/><path d="M328.566 289.091c8.689-11.576 13.87-25.941 13.87-41.51a5.4 5.4 0 00-5.396-5.407H209.714a5.4 5.4 0 00-5.394 5.407c0 15.569 5.181 29.934 13.871 41.51h110.375z" fill="#ef5050"/><path d="M281.15 289.091v-5.188c0-4.142-3.357-7.5-7.5-7.5s-7.5 3.358-7.5 7.5v5.188h15zm14.389 0h11.663a7.5 7.5 0 00-.496-10.045l-7.281-7.298a7.5 7.5 0 00-10.606-.013 7.5 7.5 0 00-.013 10.606l6.733 6.75zm-44.96 0l6.732-6.748a7.5 7.5 0 00-10.618-10.595l-7.282 7.298a7.5 7.5 0 00-.498 10.044l11.666.001zm-11.531-20.226H228.75c-4.143 0-7.5-3.358-7.5-7.5s3.357-7.5 7.5-7.5h10.298a7.5 7.5 0 010 15zm78.958 0h-10.299a7.5 7.5 0 010-15h10.299a7.5 7.5 0 010 15z" fill="#c0272d"/><path d="M92.98 340.804a1.001 1.001 0 001.271-.962v-12.693c0-3.584 2.916-6.5 6.5-6.5s6.5 2.916 6.5 6.5v12.693a.998.998 0 001.271.962c5.261-1.482 11.468-2.266 17.947-2.266 18.205 0 30.435 5.901 30.435 11.413 0 .712-.217 1.457-.646 2.215a1 1 0 00.489 1.417c23.309 9.608 39.826 29.989 43.107 53.188a1.004 1.004 0 00.99.86c.12 0 .24-.022.355-.065l157.875-59.976a26.748 26.748 0 019.529-1.748c4.579 0 9.108 1.181 13.099 3.414 6.94 3.884 11.749 10.583 13.194 18.378l1.375 7.425a.999.999 0 001.492.679l53.08-31.334c4.561-16.253 6.873-33.105 6.873-50.414a5.177 5.177 0 00-5.172-5.182H91.393a5.177 5.177 0 00-5.172 5.182c0 15.951 1.972 31.513 5.847 46.577.303.08.615.153.912.237z" fill="#e6e9ed"/><path d="M92.98 340.804a1.001 1.001 0 001.271-.962v-12.693c0-3.584 2.916-6.5 6.5-6.5s6.5 2.916 6.5 6.5v12.693a.998.998 0 001.271.962c4.503-1.269 9.702-2.021 15.169-2.212-3.544-14.448-5.339-29.348-5.339-44.602a5.177 5.177 0 015.172-5.182H91.393a5.177 5.177 0 00-5.172 5.182c0 15.951 1.972 31.513 5.847 46.577.303.08.615.153.912.237z" opacity=".1"/><path d="M100.75 344.373c2.054-1.153 4.598-2.158 7.502-2.977v-14.248c0-4.142-3.357-7.5-7.5-7.5s-7.5 3.358-7.5 7.5v14.248c2.904.818 5.445 1.824 7.498 2.977z" fill="#89c947"/><path d="M177.369 483.55l-27.088.011h-.01c-12.895-.001-23.952-9.165-26.29-21.792l-.267-1.436c-2.339-12.629 4.711-25.12 16.764-29.7l60.513-22.988c-3.116-24.924-20.68-45.798-44.798-55.375-2.34 3.933-10.398 7.357-20.89 8.588a1 1 0 00-.509 1.774c5.438 4.35 8.854 8.936 9.139 12.269.104 1.208-.193 2.188-.909 2.996-1.275 1.44-3.783 2.201-7.251 2.201h-.001c-6.752 0-15.882-2.823-24.424-7.551-3.762-2.085-7.109-4.362-9.952-6.771a1 1 0 00-1.292 0c-2.845 2.411-6.192 4.689-9.95 6.77-8.542 4.729-17.673 7.552-24.425 7.552-3.469 0-5.976-.761-7.251-2.201-.716-.808-1.014-1.787-.91-2.995.286-3.333 3.702-7.919 9.138-12.27a1.001 1.001 0 00-.509-1.774c-10.495-1.231-18.554-4.657-20.89-8.592C18.657 362.846 0 387.216 0 415.601c0 38.086 33.581 68.96 75.004 68.96H179c1.123 0 .254-.399-1.631-1.011z" fill="#ef5050"/><path d="M32.45 415.601c0-22.622 11.848-42.699 30.148-55.275-8.714-1.521-15.231-4.588-17.292-8.059C18.657 362.846 0 387.216 0 415.601c0 38.086 33.581 68.96 75.004 68.96h32.451c-41.423 0-75.005-30.874-75.005-68.96z" opacity=".1"/><path d="M157.905 349.952c0-6.856-14.074-12.413-31.435-12.413-10.634 0-20.032 2.087-25.721 5.28-5.685-3.192-15.082-5.28-25.718-5.28-17.36 0-31.436 5.557-31.436 12.413 0 5.626 9.486 10.375 22.483 11.9-7.951 6.363-11.592 13.05-8.352 16.708 4.293 4.847 19.029 2.545 32.909-5.139 3.897-2.158 7.312-4.508 10.112-6.882 2.803 2.375 6.22 4.724 10.114 6.882 13.881 7.684 28.616 9.984 32.908 5.139 3.241-3.658-.399-10.345-8.353-16.708 13.006-1.525 22.489-6.274 22.489-11.9z" fill="#368c0e"/><path d="M511.884 394.361l-2.014-10.864c-.692-3.75-4.309-6.228-8.075-5.538l-77.731 14.279 49.631-33.177a6.903 6.903 0 002.958-6.986 6.953 6.953 0 00-.779-2.133l-5.617-9.948a6.915 6.915 0 00-4.25-3.285 6.95 6.95 0 00-5.328.73l-64.564 38.113 12.214 65.94 74.054 13.308a6.953 6.953 0 005.271-1.184 6.9 6.9 0 002.816-4.597l1.674-11.231c.116-.773.1-1.537-.036-2.265a6.918 6.918 0 00-5.265-5.477l-58.252-13.361 77.732-14.28c3.768-.692 6.255-4.292 5.561-8.044z" fill="#89c947"/><path d="M122.998 461.951c2.427 13.104 13.903 22.614 27.283 22.609l233.967-.09a27.779 27.779 0 0021.308-9.954 27.533 27.533 0 005.956-22.678l-15.63-84.387c-1.495-8.065-6.51-15.051-13.689-19.069s-15.778-4.649-23.472-1.728l-218.598 83.043c-12.502 4.751-19.818 17.712-17.392 30.817l.267 1.437z" fill="#f7931e"/><path d="M122.998 461.951a27.477 27.477 0 001.754 5.747 28.883 28.883 0 0114.944-12.849l228.289-86.725a29.076 29.076 0 0124.512 1.804 28.96 28.96 0 014.406 3.045l-1.021-5.521c-1.495-8.065-6.51-15.051-13.689-19.069s-15.778-4.649-23.472-1.728l-218.598 83.043c-12.502 4.751-19.818 17.712-17.392 30.817l.267 1.436z" opacity=".1"/><path d="M370.837 449.389a7.5 7.5 0 00-14.732 2.818l6.174 32.272 15.271-.006-6.713-35.084zm-40.654 8.893a7.5 7.5 0 00-14.74 2.778l4.418 23.435 15.263-.006-4.941-26.207zm-39.744-56.488a7.503 7.503 0 007.268 5.67 7.5 7.5 0 007.279-9.334l-7.139-28.35-14.118 5.364 6.71 26.65zm-39.026 49.952a7.5 7.5 0 00-14.762 2.662l5.431 30.117 15.241-.006-5.91-32.773zm-75.661-14.018a7.5 7.5 0 1014.68-3.081l-4.677-22.283-14.194 5.392 4.191 19.972z" fill="#ffc502"/></svg>